<svg xmlns="http://www.w3.org/2000/svg" viewBox="0 0 200 200" width="100%" height="100%">
  <rect width="100%" height="100%" fill="#172019"/>
  <path d="M60,80 C60,60 140,60 140,80 L130,150 C130,160 70,160 70,150 Z" fill="none" stroke="#C9A86A" stroke-width="4"/>
  <path d="M140,90 C155,90 165,100 165,110 C165,120 155,130 140,130" fill="none" stroke="#C9A86A" stroke-width="4"/>
  <path d="M80,50 C80,40 85,35 85,25 M100,50 C100,40 105,35 105,25 M120,50 C120,40 125,35 125,25" fill="none" stroke="#A63A2B" stroke-width="3" stroke-linecap="round"/>
  <text x="50%" y="180" fill="#E8DDC7" font-family="serif" font-size="12" text-anchor="middle">CỘNG CÀ PHÊ</text>
</svg>
